<?xml version="1.0" encoding="utf-8"?>
<!-- Generator: Adobe Illustrator 23.0.1, SVG Export Plug-In . SVG Version: 6.00 Build 0)  -->
<svg version="1.1" xmlns="http://www.w3.org/2000/svg" xmlns:xlink="http://www.w3.org/1999/xlink" x="0px" y="0px"
	 viewBox="0 0 126.5 143.8" style="enable-background:new 0 0 126.5 143.8;" xml:space="preserve">
<style type="text/css">
	.st0{fill:#F42222;}
</style>
<g id="Layer_2">
</g>
<g id="Layer_1">
	<path class="st0" d="M110.3,53.3L99.4,51c-1.8-0.4-3.6-7-2.1-8.4l8.2-7.4c0.9-0.8,1.1-2.1,0.5-3.1V32c-0.6-1-1.8-1.5-3-1.1
		l-10.6,3.4c-1.9,0.6-6.6-4.2-6.1-6l3.4-10.6c0.4-1.1-0.1-2.4-1.1-3h-0.1c-1-0.6-2.3-0.4-3.1,0.5L78,23.4c-1.4,1.5-8-0.3-8.4-2.1
		l-2.3-11c-0.2-1.2-1.3-2-2.5-2l0,0c-1.2,0-2.2,0.8-2.5,2L60,21.2c-0.4,1.8-7.1,3.7-8.5,2.1l-7.3-8.1c-0.8-0.9-2.1-1.1-3.2-0.5l0,0
		c-1,0.6-1.5,1.9-1.1,3l3.4,10.5c0.6,1.9-4.2,6.7-6,6.1l-10.6-3.4c-1.1-0.4-2.4,0.1-3,1.1c-0.6,1-0.4,2.4,0.5,3.2l8.1,7.4
		c1.5,1.4-0.3,8-2.1,8.4l-10.9,2.3c-1.2,0.2-2,1.3-2,2.5l0,0c0,1.2,0.8,2.2,2,2.5l10.9,2.3c1.8,0.4,3.7,7.1,2.1,8.5l-8.2,7.3
		c-0.9,0.8-1.1,2.1-0.5,3.1v0.1c0.6,1,1.8,1.5,3,1.1l10.6-3.4c1.8-0.6,6.7,4.2,6.1,6.1L39.9,94c-0.4,1.1,0.1,2.4,1.1,3h0.1
		c1,0.6,2.3,0.4,3.1-0.5l7.4-8.2c1.4-1.5,8.1,0.3,8.5,2.1l2.3,10.9c0.2,1.2,1.3,2,2.5,2l0,0c1.2,0,2.2-0.8,2.5-2l2.3-10.9
		c0.4-1.8,7-3.7,8.4-2.1l7.4,8.2c0.8,0.9,2.1,1.1,3.1,0.5h0.1c1-0.6,1.5-1.8,1.1-3l-3.4-10.6c-0.6-1.9,4.2-6.6,6.1-6l10.6,3.4
		c1.1,0.4,2.4-0.1,3-1.1v-0.1c0.6-1,0.4-2.3-0.5-3.1l-8.2-7.4c-1.6-1.4,0.3-8.1,2.1-8.5l10.9-2.3c1.2-0.2,2-1.3,2-2.5
		S111.5,53.6,110.3,53.3z M47.7,65.9c-2,0-3.6-1.6-3.6-3.6s1.6-3.6,3.6-3.6s3.6,1.6,3.6,3.6S49.7,65.9,47.7,65.9z M53.9,44.3
		c-2.1,0-3.8-1.7-3.8-3.8s1.7-3.8,3.8-3.8s3.8,1.7,3.8,3.8S56.1,44.3,53.9,44.3z M66,51.7c2.2,0,4.1,1.8,4.1,4.1s-1.8,4.1-4.1,4.1
		c-2.2,0-4.1-1.8-4.1-4.1S63.8,51.7,66,51.7z M66.3,78.8c-2.2,0-4-1.8-4-4s1.8-4,4-4c2.2,0,4,1.8,4,4S68.5,78.8,66.3,78.8z
		 M76.7,44.7c-1.9,0-3.5-1.6-3.5-3.5s1.6-3.5,3.5-3.5s3.5,1.6,3.5,3.5C80.2,43.1,78.6,44.7,76.7,44.7z M82.4,66.9
		c-1.9,0-3.5-1.6-3.5-3.5s1.6-3.5,3.5-3.5s3.5,1.6,3.5,3.5S84.4,66.9,82.4,66.9z"/>
	<path class="st0" d="M50.7,135.8l-2.2-3.8c-0.4-0.6,1.1-2.9,1.9-2.8l4.4,0.5c0.5,0.1,0.9-0.2,1.1-0.7l0,0c0.1-0.4,0-0.9-0.5-1.2
		l-3.8-2.3c-0.7-0.4-0.5-3.1,0.2-3.4l4-1.8c0.4-0.2,0.7-0.7,0.6-1.1l0,0c-0.1-0.5-0.5-0.8-1-0.8l-4.4,0c-0.8,0-2-2.5-1.6-3.1
		l2.7-3.6c0.3-0.4,0.3-0.9-0.1-1.3l0,0c-0.3-0.4-0.8-0.4-1.3-0.2l-3.8,2.2c-0.6,0.4-3-1.1-2.9-2l0.5-4.3c0.1-0.5-0.2-0.9-0.7-1.1
		l0,0c-0.4-0.1-1,0.1-1.2,0.5l-2.2,3.8c-0.4,0.7-3.1,0.5-3.4-0.2l-1.8-4c-0.2-0.4-0.7-0.7-1.1-0.6c-0.5,0.1-0.8,0.5-0.8,1l-0.1,4.4
		c0,0.8-2.5,2-3.1,1.6l-3.6-2.6c-0.4-0.3-0.9-0.3-1.3,0.1l0,0c-0.4,0.3-0.4,0.8-0.2,1.3l2.2,3.8c0.4,0.6-1.1,3-2,2.9l-4.3-0.5
		c-0.5-0.1-0.9,0.2-1.1,0.7l0,0c-0.1,0.4,0,0.9,0.5,1.2l3.8,2.3c0.7,0.4,0.5,3.1-0.2,3.4l-4,1.8c-0.4,0.2-0.7,0.7-0.6,1.1l0,0
		c0.1,0.5,0.5,0.8,1,0.8l4.4,0c0.8,0,2,2.5,1.6,3.1l-2.6,3.6c-0.3,0.4-0.3,0.9,0.1,1.3l0,0c0.3,0.4,0.8,0.4,1.3,0.2l3.8-2.2
		c0.6-0.4,2.9,1.1,2.8,1.9l-0.5,4.4c-0.1,0.5,0.2,0.9,0.7,1.1l0,0c0.4,0.1,0.9,0,1.2-0.5l2.3-3.8c0.4-0.7,3.1-0.5,3.4,0.2l1.8,4
		c0.2,0.4,0.7,0.7,1.1,0.6l0,0c0.5-0.1,0.8-0.5,0.8-1l0-4.4c0-0.8,2.5-2,3.1-1.6l3.6,2.6c0.4,0.3,0.9,0.3,1.3-0.1
		S50.9,136.2,50.7,135.8z M30.4,120.5c-0.5-0.6-0.5-1.5,0.1-2c0.6-0.5,1.5-0.5,2,0.1c0.5,0.6,0.5,1.5-0.1,2
		C31.8,121.1,30.9,121.1,30.4,120.5z M38.5,116.6c-0.6-0.6-0.5-1.6,0.1-2.1s1.6-0.5,2.1,0.1c0.6,0.6,0.5,1.6-0.1,2.1
		S39.1,117.3,38.5,116.6z M39.5,122.2c0.6,0.7,0.5,1.7-0.1,2.3s-1.7,0.5-2.3-0.1c-0.6-0.7-0.5-1.7,0.1-2.3
		C37.9,121.4,38.9,121.5,39.5,122.2z M31.5,129.4c-0.6-0.7-0.5-1.7,0.1-2.2c0.7-0.6,1.7-0.5,2.2,0.1c0.6,0.7,0.5,1.7-0.1,2.2
		C33.1,130.1,32.1,130.1,31.5,129.4z M44.4,123.5c-0.5-0.6-0.4-1.5,0.1-2c0.6-0.5,1.5-0.4,2,0.1s0.4,1.5-0.1,2
		S44.9,124.1,44.4,123.5z M39.3,131c-0.5-0.6-0.4-1.5,0.1-2c0.6-0.5,1.5-0.4,2,0.1c0.5,0.6,0.4,1.5-0.1,2
		C40.7,131.7,39.8,131.6,39.3,131z"/>
	<path class="st0" d="M119.5,104.9l-1.4-2.5c-0.2-0.4,0.7-1.9,1.3-1.9l2.8,0.3c0.3,0,0.6-0.1,0.7-0.4l0,0c0.1-0.3,0-0.6-0.3-0.8
		l-2.5-1.5c-0.4-0.3-0.3-2,0.1-2.2l2.6-1.2c0.3-0.1,0.4-0.4,0.4-0.7l0,0c-0.1-0.3-0.3-0.5-0.6-0.5l-2.9,0c-0.5,0-1.3-1.6-1-2
		l1.7-2.3c0.2-0.2,0.2-0.6,0-0.8l0,0c-0.2-0.2-0.5-0.3-0.8-0.1l-2.5,1.4c-0.4,0.2-1.9-0.7-1.9-1.3l0.3-2.8c0-0.3-0.1-0.6-0.5-0.7
		l0,0c-0.3-0.1-0.6,0-0.8,0.3l-1.5,2.5c-0.3,0.4-2,0.3-2.2-0.1l-1.2-2.6c-0.1-0.3-0.4-0.4-0.7-0.4c-0.3,0.1-0.5,0.3-0.5,0.6l0,2.8
		c0,0.5-1.6,1.3-2,1l-2.3-1.7c-0.2-0.2-0.6-0.2-0.8,0l0,0c-0.2,0.2-0.3,0.5-0.1,0.8l1.4,2.5c0.2,0.4-0.7,1.9-1.3,1.9l-2.8-0.3
		c-0.3,0-0.6,0.1-0.7,0.4l0,0c-0.1,0.3,0,0.6,0.3,0.8l2.5,1.5c0.4,0.2,0.3,2-0.1,2.2l-2.6,1.2c-0.3,0.1-0.4,0.4-0.4,0.7l0,0
		c0.1,0.3,0.3,0.5,0.6,0.5l2.9,0c0.5,0,1.3,1.6,1.1,2l-1.7,2.3c-0.2,0.2-0.2,0.6,0,0.8l0,0c0.2,0.2,0.5,0.3,0.8,0.1l2.5-1.4
		c0.4-0.2,1.9,0.7,1.9,1.3l-0.3,2.8c0,0.3,0.1,0.6,0.4,0.7l0,0c0.3,0.1,0.6,0,0.8-0.3l1.5-2.5c0.3-0.4,2-0.3,2.2,0.2l1.2,2.6
		c0.1,0.3,0.4,0.4,0.7,0.4l0,0c0.3-0.1,0.5-0.3,0.5-0.6l0-2.9c0-0.6,1.6-1.3,2-1.1l2.3,1.7c0.2,0.2,0.6,0.2,0.8,0
		C119.7,105.5,119.7,105.2,119.5,104.9z M106.3,94.9c-0.3-0.4-0.3-1,0.1-1.3c0.4-0.3,1-0.3,1.3,0.1c0.3,0.4,0.3,1-0.1,1.3
		C107.3,95.3,106.7,95.3,106.3,94.9z M111.6,92.4c-0.4-0.4-0.3-1,0.1-1.4s1-0.3,1.4,0.1s0.3,1-0.1,1.4S112,92.8,111.6,92.4z
		 M112.2,96c0.4,0.4,0.4,1.1-0.1,1.5s-1.1,0.4-1.5-0.1c-0.4-0.4-0.4-1.1,0.1-1.5C111.2,95.5,111.9,95.6,112.2,96z M107,100.7
		c-0.4-0.4-0.3-1.1,0.1-1.5c0.4-0.4,1.1-0.3,1.5,0.1c0.4,0.4,0.3,1.1-0.1,1.5S107.4,101.1,107,100.7z M115.4,96.9
		c-0.3-0.4-0.3-1,0.1-1.3c0.4-0.3,1-0.3,1.3,0.1c0.3,0.4,0.3,1-0.1,1.3S115.8,97.2,115.4,96.9z M112.1,101.8c-0.3-0.4-0.3-1,0.1-1.3
		c0.4-0.3,1-0.3,1.3,0.1c0.3,0.4,0.3,1-0.1,1.3C113,102.2,112.4,102.2,112.1,101.8z"/>
	<path class="st0" d="M16.4,90.2L15.7,89c-0.1-0.2,0.4-0.9,0.6-0.9l1.4,0.2c0.1,0,0.3-0.1,0.3-0.2l0,0c0-0.1,0-0.3-0.1-0.4L16.7,87
		c-0.2-0.1-0.2-1,0.1-1.1l1.3-0.6c0.1-0.1,0.2-0.2,0.2-0.3l0,0c0-0.1-0.2-0.2-0.3-0.2l-1.4,0c-0.3,0-0.6-0.8-0.5-0.9l0.8-1.1
		c0.1-0.1,0.1-0.3,0-0.4l0,0c-0.1-0.1-0.3-0.1-0.4-0.1l-1.2,0.7c-0.2,0.1-0.9-0.4-0.9-0.6l0.2-1.3c0-0.1-0.1-0.3-0.2-0.3l0,0
		c-0.1,0-0.3,0-0.4,0.1L13.2,82c-0.1,0.2-1,0.2-1.1-0.1l-0.6-1.3c-0.1-0.1-0.2-0.2-0.3-0.2c-0.1,0-0.3,0.2-0.3,0.3l0,1.4
		c0,0.3-0.8,0.6-0.9,0.5l-1.1-0.8c-0.1-0.1-0.3-0.1-0.4,0l0,0c-0.1,0.1-0.1,0.3-0.1,0.4l0.7,1.2c0.1,0.2-0.4,0.9-0.6,0.9l-1.3-0.2
		c-0.1,0-0.3,0.1-0.3,0.2l0,0c0,0.1,0,0.3,0.1,0.4l1.2,0.7c0.2,0.1,0.2,1-0.1,1.1l-1.3,0.6c-0.1,0.1-0.2,0.2-0.2,0.3l0,0
		c0,0.1,0.2,0.2,0.3,0.2l1.4,0c0.3,0,0.6,0.8,0.5,1L8,89.7c-0.1,0.1-0.1,0.3,0,0.4l0,0c0.1,0.1,0.3,0.1,0.4,0.1l1.2-0.7
		c0.2-0.1,0.9,0.3,0.9,0.6l-0.2,1.4c0,0.1,0.1,0.3,0.2,0.3l0,0c0.1,0,0.3,0,0.4-0.1l0.7-1.2c0.1-0.2,1-0.2,1.1,0.1l0.6,1.3
		c0.1,0.1,0.2,0.2,0.3,0.2l0,0c0.1,0,0.2-0.2,0.2-0.3l0-1.4c0-0.3,0.8-0.6,1-0.5l1.1,0.8c0.1,0.1,0.3,0.1,0.4,0S16.5,90.4,16.4,90.2
		z M10.1,85.5c-0.2-0.2-0.1-0.5,0-0.6c0.2-0.2,0.5-0.1,0.6,0c0.2,0.2,0.1,0.5,0,0.6S10.3,85.7,10.1,85.5z M12.6,84.3
		c-0.2-0.2-0.2-0.5,0-0.7c0.2-0.2,0.5-0.2,0.7,0c0.2,0.2,0.2,0.5,0,0.7C13.1,84.5,12.8,84.5,12.6,84.3z M12.9,86
		c0.2,0.2,0.2,0.5,0,0.7s-0.5,0.2-0.7,0c-0.2-0.2-0.2-0.5,0-0.7S12.7,85.8,12.9,86z M10.4,88.3c-0.2-0.2-0.2-0.5,0-0.7
		c0.2-0.2,0.5-0.2,0.7,0c0.2,0.2,0.2,0.5,0,0.7C10.9,88.5,10.6,88.5,10.4,88.3z M14.4,86.4c-0.2-0.2-0.1-0.5,0-0.6
		c0.2-0.2,0.5-0.1,0.6,0c0.2,0.2,0.1,0.5,0,0.6C14.9,86.6,14.6,86.6,14.4,86.4z M12.9,88.8c-0.2-0.2-0.1-0.5,0-0.6
		c0.2-0.2,0.5-0.1,0.6,0c0.2,0.2,0.1,0.5,0,0.6C13.3,89,13,89,12.9,88.8z"/>
</g>
</svg>
